<svg id="Layer_1" data-name="Layer 1" xmlns="http://www.w3.org/2000/svg" viewBox="0 0 275.36 275.31"><title>safari-pinned-tab</title><path d="M136.5,12.7C115.8,14.6,90.9,23.6,72.4,36c-10,6.7-29.5,26.2-36.1,36a142.73,142.73,0,0,0-21.4,50.5c-3.4,16.1-3.3,40.1.4,56.7C27.1,233,67.7,273.2,122,285.1c14.7,3.2,40.9,3.2,55.3.1,28.5-6.3,49.3-17.6,69.8-38.1S279.4,205,284.9,178A137.59,137.59,0,0,0,166.5,13.1,166.54,166.54,0,0,0,136.5,12.7ZM164,118.6c16.1,7.3,23.9,28,16.6,44a37.86,37.86,0,0,1-16.1,17.2c-6.5,3.3-19,4.2-26,1.9-9.8-3.4-18.9-12.6-21.7-22.1a48.2,48.2,0,0,1-1.2-11.1c.1-15.3,10.8-28.6,26.1-32.5C147.5,114.6,157.8,115.8,164,118.6Zm-63.5,44.5c2.7,10.5,11.6,22.4,21.3,28.6,23.1,14.8,54,8.7,69.2-13.7,4-5.9,8-15,8-18.3,0-1.6,2.2-1.7,35.7-1.5l35.8.3-.3,4.5c-1.2,18-10.7,42-23,58.5C224,252.6,188.8,270,149.4,270a120.32,120.32,0,0,1-99.8-53.3c-9.7-14.6-17.5-35-19.4-50.8l-.8-6.8,8-.4c4.5-.2,20.2-.3,35-.3l27,.1Z" transform="translate(-12.43 -12.21)"/><path d="M144.5,132.5a17.85,17.85,0,0,0-4.9,31.1c5.4,4.2,13.7,4.6,19.9,1,11.7-6.9,11.3-25.2-.7-30.9C153.6,131.3,148.9,130.9,144.5,132.5Z" transform="translate(-12.43 -12.21)"/></svg>