<?xml version="1.0" standalone="no"?>
<!DOCTYPE svg PUBLIC "-//W3C//DTD SVG 20010904//EN"
 "http://www.w3.org/TR/2001/REC-SVG-20010904/DTD/svg10.dtd">
<svg version="1.0" xmlns="http://www.w3.org/2000/svg"
 width="300.000000pt" height="300.000000pt" viewBox="0 0 300.000000 300.000000"
 preserveAspectRatio="xMidYMid meet">
<metadata>
Created by potrace 1.11, written by Peter Selinger 2001-2013
</metadata>
<g transform="translate(0.000000,300.000000) scale(0.100000,-0.100000)"
fill="#000000" stroke="none">
<path d="M1324 2870 c-467 -66 -863 -352 -1066 -772 -99 -201 -133 -356 -132
-598 0 -187 12 -272 60 -423 132 -416 469 -754 889 -890 155 -50 236 -62 430
-61 159 0 193 3 292 26 543 128 937 528 1055 1073 29 133 31 417 5 540 -63
288 -183 510 -382 710 -193 194 -422 318 -695 376 -107 23 -355 33 -456 19z
m287 -1046 c73 -25 141 -85 179 -155 45 -86 53 -194 20 -281 -28 -74 -96 -150
-167 -184 -82 -41 -188 -45 -271 -11 -139 56 -218 173 -216 322 3 232 233 388
455 309z m-607 -452 c22 -77 61 -145 118 -207 92 -101 199 -152 339 -162 234
-16 435 119 515 347 l23 65 352 0 351 0 -6 -73 c-8 -88 -44 -217 -94 -331
-112 -261 -344 -491 -615 -610 -53 -23 -141 -54 -195 -68 -89 -24 -114 -26
-292 -27 -180 0 -203 2 -292 26 -380 103 -687 371 -827 722 -44 111 -80 254
-81 318 l0 38 238 3 c130 1 285 3 344 5 l107 2 15 -48z"/>
<path d="M1435 1672 c-116 -54 -148 -187 -68 -283 73 -86 212 -82 281 9 21 28
27 48 30 101 3 61 1 69 -27 108 -53 73 -141 100 -216 65z"/>
</g>
</svg>
