<?xml version="1.0" standalone="no"?>
<!DOCTYPE svg PUBLIC "-//W3C//DTD SVG 20010904//EN"
 "http://www.w3.org/TR/2001/REC-SVG-20010904/DTD/svg10.dtd">
<svg version="1.0" xmlns="http://www.w3.org/2000/svg"
 width="300.000000pt" height="300.000000pt" viewBox="0 0 300.000000 300.000000"
 preserveAspectRatio="xMidYMid meet">
<metadata>
Created by potrace 1.11, written by Peter Selinger 2001-2013
</metadata>
<g transform="translate(0.000000,300.000000) scale(0.100000,-0.100000)"
fill="#000000" stroke="none">
<path d="M1365 2873 c-207 -19 -456 -109 -641 -233 -100 -67 -295 -262 -361
-360 -105 -157 -175 -322 -214 -505 -34 -161 -33 -401 4 -567 118 -538 524
-940 1067 -1059 147 -32 409 -32 553 -1 285 63 493 176 698 381 204 204 323
421 378 691 163 795 -380 1551 -1184 1649 -85 10 -211 12 -300 4z m275 -1059
c161 -73 239 -280 166 -440 -33 -72 -94 -137 -161 -172 -65 -33 -190 -42 -260
-19 -98 34 -189 126 -217 221 -7 23 -12 73 -12 111 1 153 108 286 261 325 58
14 161 2 223 -26z m-635 -445 c27 -105 116 -224 213 -286 231 -148 540 -87
692 137 40 59 80 150 80 183 0 16 22 17 357 15 l358 -3 -3 -45 c-12 -180 -107
-420 -230 -585 -232 -311 -584 -485 -978 -485 -400 0 -778 202 -998 533 -97
146 -175 350 -194 508 l-8 68 80 4 c45 2 202 3 350 3 l270 -1 11 -46z"/>
<path d="M1445 1675 c-135 -49 -163 -225 -49 -311 54 -42 137 -46 199 -10 117
69 113 252 -7 309 -52 24 -99 28 -143 12z"/>
</g>
</svg>
